<?xml version="1.0" standalone="no"?>
<!DOCTYPE svg PUBLIC "-//W3C//DTD SVG 1.1//EN" "http://www.w3.org/Graphics/SVG/1.1/DTD/svg11.dtd">
<svg width="100%" height="100%" viewBox="0 0 1024 1024" version="1.1" xmlns="http://www.w3.org/2000/svg" xmlns:xlink="http://www.w3.org/1999/xlink" xml:space="preserve" style="fill-rule:evenodd;clip-rule:evenodd;stroke-linejoin:round;stroke-miterlimit:1.41421;">
    <g transform="matrix(1.225,0,0,1.225,-102.5,-45)">
        <path d="M100,300L200,200C200,200 804.529,200 890,200C892.652,200 895.196,201.054 897.071,202.929C898.946,204.804 900,207.348 900,210C900,274.038 900,625.962 900,690C900,695.523 895.523,700 890,700C804.37,700 195.63,700 110,700C107.348,700 104.804,698.946 102.929,697.071C101.054,695.196 100,692.652 100,690C100,628.117 100,300 100,300ZM340,590C340,584.481 335.519,580 330,580L310,580C304.481,580 300,584.481 300,590L300,630C300,635.519 304.481,640 310,640L330,640C335.519,640 340,635.519 340,630L340,590ZM430,580L410,580C404.481,580 400,584.481 400,590L400,630C400,635.519 404.481,640 410,640L430,640C435.519,640 440,635.519 440,630L440,590C440,584.481 435.519,580 430,580ZM540,590C540,584.481 535.519,580 530,580L510,580C504.481,580 500,584.481 500,590L500,630C500,635.519 504.481,640 510,640L530,640C535.519,640 540,635.519 540,630L540,590ZM730,580L710,580C704.481,580 700,584.481 700,590L700,630C700,635.519 704.481,640 710,640L730,640C735.519,640 740,635.519 740,630L740,590C740,584.481 735.519,580 730,580ZM830,580L810,580C804.481,580 800,584.481 800,590L800,630C800,635.519 804.481,640 810,640L830,640C835.519,640 840,635.519 840,630L840,590C840,584.481 835.519,580 830,580ZM240,520C240,514.481 235.519,510 230,510L210,510C204.481,510 200,514.481 200,520L200,560C200,565.519 204.481,570 210,570L230,570C235.519,570 240,565.519 240,560L240,520ZM330,510L310,510C304.481,510 300,514.481 300,520L300,560C300,565.519 304.481,570 310,570L330,570C335.519,570 340,565.519 340,560L340,520C340,514.481 335.519,510 330,510ZM640,520C640,514.481 635.519,510 630,510L610,510C604.481,510 600,514.481 600,520L600,560C600,565.519 604.481,570 610,570L630,570C635.519,570 640,565.519 640,560L640,520ZM730,510L710,510C704.481,510 700,514.481 700,520L700,560C700,565.519 704.481,570 710,570L730,570C735.519,570 740,565.519 740,560L740,520C740,514.481 735.519,510 730,510ZM230,440L210,440C204.481,440 200,444.481 200,450L200,490C200,495.519 204.481,500 210,500L230,500C235.519,500 240,495.519 240,490L240,450C240,444.481 235.519,440 230,440ZM440,450C440,444.481 435.519,440 430,440L410,440C404.481,440 400,444.481 400,450L400,490C400,495.519 404.481,500 410,500L430,500C435.519,500 440,495.519 440,490L440,450ZM530,440L510,440C504.481,440 500,444.481 500,450L500,490C500,495.519 504.481,500 510,500L530,500C535.519,500 540,495.519 540,490L540,450C540,444.481 535.519,440 530,440ZM640,450C640,444.481 635.519,440 630,440L610,440C604.481,440 600,444.481 600,450L600,490C600,495.519 604.481,500 610,500L630,500C635.519,500 640,495.519 640,490L640,450ZM730,440L710,440C704.481,440 700,444.481 700,450L700,490C700,495.519 704.481,500 710,500L730,500C735.519,500 740,495.519 740,490L740,450C740,444.481 735.519,440 730,440ZM230,370L210,370C204.481,370 200,374.481 200,380L200,420C200,425.519 204.481,430 210,430L230,430C235.519,430 240,425.519 240,420L240,380C240,374.481 235.519,370 230,370ZM340,380C340,374.481 335.519,370 330,370L310,370C304.481,370 300,374.481 300,380L300,420C300,425.519 304.481,430 310,430L330,430C335.519,430 340,425.519 340,420L340,380ZM430,370L410,370C404.481,370 400,374.481 400,380L400,420C400,425.519 404.481,430 410,430L430,430C435.519,430 440,425.519 440,420L440,380C440,374.481 435.519,370 430,370ZM640,380C640,374.481 635.519,370 630,370L610,370C604.481,370 600,374.481 600,380L600,420C600,425.519 604.481,430 610,430L630,430C635.519,430 640,425.519 640,420L640,380ZM840,380C840,374.481 835.519,370 830,370L810,370C804.481,370 800,374.481 800,380L800,420C800,425.519 804.481,430 810,430L830,430C835.519,430 840,425.519 840,420L840,380Z" style="fill:white;"/>
    </g>
</svg>
